<svg width="85" height="28" viewBox="0 0 85 28" fill="none" xmlns="http://www.w3.org/2000/svg">
<path d="M0.12 4.5V0.755999H7.608V27H3.468V4.5H0.12ZM13.2459 13.536C13.2459 9.384 13.9419 6.144 15.3339 3.816C16.7499 1.464 19.1739 0.287998 22.6059 0.287998C26.0379 0.287998 28.4499 1.464 29.8419 3.816C31.2579 6.144 31.9659 9.384 31.9659 13.536C31.9659 17.736 31.2579 21.024 29.8419 23.4C28.4499 25.752 26.0379 26.928 22.6059 26.928C19.1739 26.928 16.7499 25.752 15.3339 23.4C13.9419 21.024 13.2459 17.736 13.2459 13.536ZM27.9339 13.536C27.9339 11.592 27.8019 9.948 27.5379 8.604C27.2979 7.26 26.7939 6.168 26.0259 5.328C25.2579 4.464 24.1179 4.032 22.6059 4.032C21.0939 4.032 19.9539 4.464 19.1859 5.328C18.4179 6.168 17.9019 7.26 17.6379 8.604C17.3979 9.948 17.2779 11.592 17.2779 13.536C17.2779 15.552 17.3979 17.244 17.6379 18.612C17.8779 19.98 18.3819 21.084 19.1499 21.924C19.9419 22.764 21.0939 23.184 22.6059 23.184C24.1179 23.184 25.2579 22.764 26.0259 21.924C26.8179 21.084 27.3339 19.98 27.5739 18.612C27.8139 17.244 27.9339 15.552 27.9339 13.536ZM36.3084 13.536C36.3084 9.384 37.0044 6.144 38.3964 3.816C39.8124 1.464 42.2364 0.287998 45.6684 0.287998C49.1004 0.287998 51.5124 1.464 52.9044 3.816C54.3204 6.144 55.0284 9.384 55.0284 13.536C55.0284 17.736 54.3204 21.024 52.9044 23.4C51.5124 25.752 49.1004 26.928 45.6684 26.928C42.2364 26.928 39.8124 25.752 38.3964 23.4C37.0044 21.024 36.3084 17.736 36.3084 13.536ZM50.9964 13.536C50.9964 11.592 50.8644 9.948 50.6004 8.604C50.3604 7.26 49.8564 6.168 49.0884 5.328C48.3204 4.464 47.1804 4.032 45.6684 4.032C44.1564 4.032 43.0164 4.464 42.2484 5.328C41.4804 6.168 40.9644 7.26 40.7004 8.604C40.4604 9.948 40.3404 11.592 40.3404 13.536C40.3404 15.552 40.4604 17.244 40.7004 18.612C40.9404 19.98 41.4444 21.084 42.2124 21.924C43.0044 22.764 44.1564 23.184 45.6684 23.184C47.1804 23.184 48.3204 22.764 49.0884 21.924C49.8804 21.084 50.3964 19.98 50.6364 18.612C50.8764 17.244 50.9964 15.552 50.9964 13.536ZM58.7229 7.092C58.7229 5.34 59.2269 3.972 60.2349 2.988C61.2669 1.98 62.5869 1.476 64.1949 1.476C65.8029 1.476 67.1109 1.98 68.1189 2.988C69.1509 3.972 69.6669 5.34 69.6669 7.092C69.6669 8.844 69.1509 10.224 68.1189 11.232C67.1109 12.24 65.8029 12.744 64.1949 12.744C62.5869 12.744 61.2669 12.24 60.2349 11.232C59.2269 10.224 58.7229 8.844 58.7229 7.092ZM80.6829 1.944L66.3189 27H62.2869L76.6509 1.944H80.6829ZM64.1949 3.96C62.6829 3.96 61.9269 5.004 61.9269 7.092C61.9269 9.204 62.6829 10.26 64.1949 10.26C64.9149 10.26 65.4669 10.008 65.8509 9.504C66.2589 8.976 66.4629 8.172 66.4629 7.092C66.4629 5.004 65.7069 3.96 64.1949 3.96ZM73.3749 21.816C73.3749 20.064 73.8789 18.696 74.8869 17.712C75.9189 16.704 77.2389 16.2 78.8469 16.2C80.4309 16.2 81.7269 16.704 82.7349 17.712C83.7669 18.696 84.2829 20.064 84.2829 21.816C84.2829 23.568 83.7669 24.948 82.7349 25.956C81.7269 26.964 80.4309 27.468 78.8469 27.468C77.2389 27.468 75.9189 26.964 74.8869 25.956C73.8789 24.948 73.3749 23.568 73.3749 21.816ZM78.8109 18.684C77.2989 18.684 76.5429 19.728 76.5429 21.816C76.5429 23.904 77.2989 24.948 78.8109 24.948C80.3229 24.948 81.0789 23.904 81.0789 21.816C81.0789 19.728 80.3229 18.684 78.8109 18.684Z" fill="#264065"/>
</svg>
