<svg width="57" height="27" viewBox="0 0 57 27" fill="none" xmlns="http://www.w3.org/2000/svg">
<path d="M0.12 4.5V0.755999H7.608V27H3.468V4.5H0.12ZM30.1659 4.284H18.1059V11.448C18.6099 10.776 19.3539 10.212 20.3379 9.756C21.3459 9.3 22.4139 9.072 23.5419 9.072C25.5579 9.072 27.1899 9.504 28.4379 10.368C29.7099 11.232 30.6099 12.324 31.1379 13.644C31.6899 14.964 31.9659 16.356 31.9659 17.82C31.9659 19.596 31.6179 21.18 30.9219 22.572C30.2499 23.94 29.2299 25.02 27.8619 25.812C26.5179 26.604 24.8619 27 22.8939 27C20.2779 27 18.1779 26.352 16.5939 25.056C15.0099 23.76 14.0619 22.044 13.7499 19.908H17.7459C18.0099 21.036 18.5979 21.936 19.5099 22.608C20.4219 23.256 21.5619 23.58 22.9299 23.58C24.6339 23.58 25.9059 23.064 26.7459 22.032C27.6099 21 28.0419 19.632 28.0419 17.928C28.0419 16.2 27.6099 14.88 26.7459 13.968C25.8819 13.032 24.6099 12.564 22.9299 12.564C21.7539 12.564 20.7579 12.864 19.9419 13.464C19.1499 14.04 18.5739 14.832 18.2139 15.84H14.3259V0.684H30.1659V4.284ZM56.1101 15.732H48.8381V23.184H45.0221V15.732H37.7501V12.276H45.0221V4.824H48.8381V12.276H56.1101V15.732Z" fill="#264065"/>
</svg>
