<svg width="65" height="27" viewBox="0 0 65 27" fill="none" xmlns="http://www.w3.org/2000/svg">
<path d="M2.928 21.42C5.232 19.428 7.044 17.796 8.364 16.524C9.708 15.228 10.824 13.884 11.712 12.492C12.6 11.1 13.044 9.708 13.044 8.316C13.044 6.876 12.696 5.748 12 4.932C11.328 4.116 10.26 3.708 8.796 3.708C7.38 3.708 6.276 4.164 5.484 5.076C4.716 5.964 4.308 7.164 4.26 8.676H0.3C0.372 5.94 1.188 3.852 2.748 2.412C4.332 0.947999 6.336 0.215999 8.76 0.215999C11.376 0.215999 13.416 0.935999 14.88 2.376C16.368 3.816 17.112 5.736 17.112 8.136C17.112 9.864 16.668 11.532 15.78 13.14C14.916 14.724 13.872 16.152 12.648 17.424C11.448 18.672 9.912 20.124 8.04 21.78L6.42 23.22H17.832V26.64H0.336V23.652L2.928 21.42ZM38.3573 4.284H26.2973V11.448C26.8013 10.776 27.5453 10.212 28.5293 9.756C29.5373 9.3 30.6053 9.072 31.7333 9.072C33.7493 9.072 35.3813 9.504 36.6293 10.368C37.9013 11.232 38.8013 12.324 39.3293 13.644C39.8813 14.964 40.1573 16.356 40.1573 17.82C40.1573 19.596 39.8093 21.18 39.1133 22.572C38.4413 23.94 37.4213 25.02 36.0533 25.812C34.7093 26.604 33.0533 27 31.0853 27C28.4693 27 26.3693 26.352 24.7853 25.056C23.2013 23.76 22.2533 22.044 21.9413 19.908H25.9373C26.2013 21.036 26.7893 21.936 27.7013 22.608C28.6133 23.256 29.7533 23.58 31.1213 23.58C32.8253 23.58 34.0973 23.064 34.9373 22.032C35.8013 21 36.2333 19.632 36.2333 17.928C36.2333 16.2 35.8013 14.88 34.9373 13.968C34.0733 13.032 32.8013 12.564 31.1213 12.564C29.9453 12.564 28.9493 12.864 28.1333 13.464C27.3413 14.04 26.7653 14.832 26.4053 15.84H22.5173V0.684H38.3573V4.284ZM64.3015 15.732H57.0295V23.184H53.2135V15.732H45.9415V12.276H53.2135V4.824H57.0295V12.276H64.3015V15.732Z" fill="#264065"/>
</svg>
